<svg xmlns="http://www.w3.org/2000/svg" version="1.1" xmlns:xlink="http://www.w3.org/1999/xlink" xmlns:svgjs="http://svgjs.dev/svgjs" width="1500" height="1500" viewBox="0 0 1500 1500"><rect width="1500" height="1500" fill="#ffffff"></rect><g transform="matrix(0.6666666666666666,0,0,0.6666666666666666,249.6551432951889,481.7392394675661)"><svg viewBox="0 0 396 212" data-background-color="#ffffff" preserveAspectRatio="xMidYMid meet" height="803" width="1500" xmlns="http://www.w3.org/2000/svg" xmlns:xlink="http://www.w3.org/1999/xlink"><g id="tight-bounds" transform="matrix(1,0,0,1,0.3632385363263211,0.23527004895890968)"><svg viewBox="0 0 395.52 211.52945990208218" height="211.52945990208218" width="395.52"><g><svg viewBox="0 0 581.4882097547102 310.98778051386154" height="211.52945990208218" width="395.52"><g transform="matrix(1,0,0,1,183.99060975471022,96.09973813434453)"><svg viewBox="0 0 397.4975999999999 118.78830424517247" height="118.78830424517247" width="397.4975999999999"><g id="textblocktransform"><svg viewBox="0 0 397.4975999999999 118.78830424517247" height="118.78830424517247" width="397.4975999999999" id="textblock"><g><rect width="397.4975999999999" height="6.466895891897853" x="0" y="79.32822728683021" fill="#000000" opacity="1" stroke-width="0" stroke="transparent" fill-opacity="1" class="rect-qz-0" data-fill-palette-color="primary" rx="1%" id="qz-0" data-palette-color="#7e91c6"></rect></g><g transform="matrix(1,0,0,1,0.9887999999999693,0)"><svg viewBox="0 0 395.52 71.71015620998719" height="71.71015620998719" width="395.52"><g transform="matrix(1,0,0,1,0,0)"><svg width="395.52" viewBox="2 -34.3 195.24 35.4" height="71.71015620998719" data-palette-color="#7e91c6"><path d="M12.5-34.3Q13.95-34.3 14.7-33.9 15.45-33.5 15.45-32.85L15.45-32.85Q16.4-33 17.13-33.05 17.85-33.1 18.75-33.1L18.75-33.1Q22.35-33.1 24.83-31.35 27.3-29.6 28.53-26.75 29.75-23.9 29.75-20.6L29.75-20.6Q29.75-19.75 29.7-19.35L29.7-19.35Q29.25-13.35 26.7-8.78 24.15-4.2 19.98-1.7 15.8 0.8 10.6 0.8L10.6 0.8Q9.15 0.8 7.05 0.45L7.05 0.45Q6.25 0.3 5.18-0.63 4.1-1.55 3.35-2.75 2.6-3.95 2.6-4.9L2.6-4.9Q2.6-5.45 2.75-5.95L2.75-5.95 8-26.2Q5.15-25.35 3.2-24L3.2-24Q2.6-24.6 2.3-25.5 2-26.4 2-27.35L2-27.35Q2-28.45 2.9-29.3L2.9-29.3Q5.25-30.8 9.4-31.85L9.4-31.85Q10.35-34.3 12.5-34.3L12.5-34.3ZM9-4.75Q10.2-4.45 11.6-4.45L11.6-4.45Q15.1-4.45 17.6-6.38 20.1-8.3 21.53-11.25 22.95-14.2 23.4-17.35L23.4-17.35Q23.6-18.6 23.6-20.15L23.6-20.15Q23.6-23.65 22.05-25.68 20.5-27.7 17.25-27.7L17.25-27.7Q15.85-27.7 14.7-27.5L14.7-27.5Q13.8-23.6 10.9-12.25L10.9-12.25Q9.35-6.15 9-4.75L9-4.75ZM58.35-33.8Q60.15-32.85 60.15-31.4L60.15-31.4Q60.15-30.5 59.17-29.73 58.2-28.95 57-28.65L57-28.65 54.8-28.5Q53.3-28.4 50.75-28.23 48.2-28.05 44.75-27.75L44.75-27.75 42.5-18.8Q45.65-19.3 47.72-19.6 49.8-19.9 52.35-20.1L52.35-20.1Q54.3-19.25 54.3-17.8L54.3-17.8Q54.3-16.9 53.4-16.05 52.5-15.2 51.35-14.85L51.35-14.85 48.5-14.55Q43.95-14.05 41.2-13.55L41.2-13.55Q40.6-10.8 39.5-6.6L39.5-6.6 39.1-5.05Q45.75-6.3 51.95-6.8L51.95-6.8Q53.9-5.95 53.9-4.5L53.9-4.5Q53.9-3.6 53-2.75 52.1-1.9 50.95-1.55L50.95-1.55Q41.45-0.45 37.55 0.3L37.55 0.3Q37.1 0.6 35.6 0.6L35.6 0.6Q34.2 0.6 33.12-0.7 32.05-2 32.05-3.4L32.05-3.4Q32.05-3.95 32.2-4.45L32.2-4.45 37.9-27 37.75-27Q37.7-27.55 37.05-28.35L37.05-28.35Q37-28.45 36.65-28.98 36.3-29.5 36.3-30L36.3-30Q36.4-31.45 38.2-32.3L38.2-32.3Q41.95-32.8 48.7-33.27 55.45-33.75 58.35-33.8L58.35-33.8ZM78.59-6.35Q80.55-5.5 80.55-4.05L80.55-4.05Q80.55-3.15 79.65-2.3 78.75-1.45 77.59-1.1L77.59-1.1Q74.84-0.8 73.7-0.75L73.7-0.75Q67-0.2 64.25 0.3L64.25 0.3Q63.8 0.6 62.35 0.6L62.35 0.6Q60.95 0.6 59.87-0.7 58.8-2 58.8-3.4L58.8-3.4Q58.8-3.95 58.95-4.45L58.95-4.45 65.34-29.75Q65.9-31.95 66.52-32.68 67.15-33.4 68.8-33.4L68.8-33.4Q70.15-33.4 71.12-33.1 72.09-32.8 72.15-32.2L72.15-32.2Q72.15-30.8 65.7-5L65.7-5Q70.09-5.75 76.9-6.2L76.9-6.2 78.59-6.35ZM86.79-25.9Q85.79-26.25 85.27-26.98 84.74-27.7 84.74-28.7L84.74-28.7Q84.74-30.15 86.69-31L86.69-31Q93.84-32.45 101.09-33.05L101.09-33.05Q103.04-32.2 103.04-30.75L103.04-30.75Q103.04-29.85 102.14-29 101.24-28.15 100.09-27.8L100.09-27.8 97.34-27.45Q96.49-23.7 93.44-11.3L93.44-11.3 92.04-5.7 95.89-6.1Q97.84-5.25 97.84-3.8L97.84-3.8Q97.84-2.9 96.94-2.05 96.04-1.2 94.89-0.85L94.89-0.85 92.89-0.6Q85.54 0.2 81.59 1.05L81.59 1.05Q80.59 0.7 80.07-0.03 79.54-0.75 79.54-1.75L79.54-1.75Q79.54-3.2 81.49-4.05L81.49-4.05Q83.99-4.55 85.29-4.75L85.29-4.75 90.79-26.6Q88.74-26.3 86.79-25.9L86.79-25.9ZM124.69-18.25Q126.74-18.25 127.72-17.53 128.69-16.8 128.94-15.78 129.19-14.75 129.19-13.15L129.19-13.15Q129.19-8.95 126.89-5.73 124.59-2.5 120.89-0.73 117.19 1.05 113.04 1.05L113.04 1.05Q107.04 1.05 104.24-2.3 101.44-5.65 101.44-10.5L101.44-10.5Q101.44-16.25 104.52-21.48 107.59-26.7 112.12-29.88 116.64-33.05 120.64-33.05L120.64-33.05Q126.24-33.05 128.74-30.83 131.24-28.6 131.24-24.35L131.24-24.35Q131.24-22.85 130.12-21.8 128.99-20.75 127.09-20.75L127.09-20.75Q125.59-20.75 125.07-21.55 124.54-22.35 124.54-23.6L124.54-23.6 124.59-25.2Q124.59-26.1 123.59-26.95 122.59-27.8 121.74-27.8L121.74-27.8Q118.94-27.8 115.59-25.28 112.24-22.75 109.94-18.48 107.64-14.2 107.64-9.2L107.64-9.2Q107.64-6.9 109.44-5.45 111.24-4 113.99-4L113.99-4Q115.94-4 118.09-5.18 120.24-6.35 121.72-8.38 123.19-10.4 123.19-12.7L123.19-12.7Q122.49-12.6 121.14-12.25L121.14-12.25Q119.19-11.75 117.82-11.5 116.44-11.25 115.09-11.25L115.09-11.25Q113.49-11.25 112.72-11.68 111.94-12.1 111.94-13.2L111.94-13.2Q111.94-13.95 112.32-14.95 112.69-15.95 113.24-16.4L113.24-16.4Q115.74-17.05 119.02-17.65 122.29-18.25 124.69-18.25L124.69-18.25ZM155.94-14.6Q146.09-13.4 141.99-12.5L141.99-12.5 139.29-1.8Q138.94-0.35 138.26 0.15 137.59 0.65 135.59 0.65L135.59 0.65Q134.04 0.65 133.31 0.13 132.59-0.4 132.59-1.65L132.59-1.65Q132.59-2.2 132.74-2.7L132.74-2.7 139.59-29.75Q140.14-31.95 140.76-32.68 141.39-33.4 143.04-33.4L143.04-33.4Q144.39-33.4 145.51-33.1 146.64-32.8 146.69-32.2L146.69-32.2Q146.69-32.1 146.04-29.5L146.04-29.5Q145.04-25.65 143.19-17.8L143.19-17.8Q150.59-19.3 157.24-19.85L157.24-19.85 159.54-29.15Q160.04-31.15 160.91-32.13 161.79-33.1 163.29-33.4L163.29-33.4Q165.14-33.05 165.71-32.83 166.29-32.6 166.49-32.15L166.49-32.15Q165.84-30.3 165.51-28.73 165.19-27.15 165.14-26.85L165.14-26.85Q164.49-23.35 163.59-19.7L163.59-19.7Q165.54-18.85 165.54-17.4L165.54-17.4Q165.54-15.95 162.44-14.95L162.44-14.95Q161.89-12.95 160.39-6.25L160.39-6.25Q160.04-4.4 159.39-1.65L159.39-1.65Q158.69 1.1 157.19 1.1L157.19 1.1Q152.59 1.1 152.59-1.05L152.59-1.05Q152.59-1.5 155.94-14.6L155.94-14.6ZM180.69-3Q180.28-1.25 179.46-0.3 178.64 0.65 176.78 0.65L176.78 0.65Q175.24 0.65 174.51 0.13 173.78-0.4 173.78-1.65L173.78-1.65Q173.78-2.2 173.94-2.7L173.94-2.7 180.03-26.9Q179.99-26.9 176.78-26.55L176.78-26.55Q172.94-26.25 171.99-26.05L171.99-26.05Q170.99-26.4 170.46-27.13 169.94-27.85 169.94-28.85L169.94-28.85Q169.94-29.65 170.51-30.38 171.09-31.1 171.89-31.45L171.89-31.45Q174.39-31.95 178.89-32.3 183.39-32.65 190.44-33.05L190.44-33.05Q194.04-33.2 195.29-33.35L195.29-33.35Q196.09-33 196.66-32.27 197.24-31.55 197.24-30.75L197.24-30.75Q197.24-29.85 196.34-29 195.44-28.15 194.29-27.8L194.29-27.8 185.53-27.35Q186.09-27.15 186.09-26L186.09-26Q186.09-25.4 185.99-25.1L185.99-25.1Q185.14-21.3 183.66-15.25 182.19-9.2 181.69-7.05L181.69-7.05Q181.39-5.8 181.14-4.8 180.89-3.8 180.69-3L180.69-3Z" opacity="1" transform="matrix(1,0,0,1,0,0)" fill="#000000" class="wordmark-text-0" data-fill-palette-color="primary" id="text-0"></path></svg></g></svg></g><g transform="matrix(1,0,0,1,0,93.41319425557109)"><svg viewBox="0 0 232.209792 25.375109989601388" height="25.375109989601388" width="232.209792"><g transform="matrix(1,0,0,1,0,0)"><svg width="232.209792" viewBox="7.05 -41.55 548.09 59.9" height="25.375109989601388" data-palette-color="#15285d"><path d="M32.75-15.9L32.75-15.9Q34.05-15.9 34.8-15 35.55-14.1 35.55-12.5L35.55-12.5Q35.55-12.1 35.5-11.68 35.45-11.25 35.35-10.95L35.35-10.95Q34.3-11.2 33.05-11.25L33.05-11.25Q32.75-9.05 31.45-6.63 30.15-4.2 28.3-2.08 26.45 0.05 24.25 1.65 22.05 3.25 19.9 3.8L19.9 3.8Q13.2 3.65 10.13 0.33 7.05-3 7.05-10.05L7.05-10.05Q7.05-15.2 8.95-20.03 10.85-24.85 14-28.6 17.15-32.35 21.23-34.63 25.3-36.9 29.7-36.9L29.7-36.9Q33.15-36.9 35.08-35.45 37-34 37-31.35L37-31.35Q37-29.6 36.18-28.1 35.35-26.6 33.45-24.85L33.45-24.85Q32.3-25.2 31.45-26.08 30.6-26.95 30.4-28.1L30.4-28.1Q32.1-29.35 32.8-30.4 33.5-31.45 33.5-32.9L33.5-32.9Q33.5-35.2 30.75-35.2L30.75-35.2Q28.5-35.2 25.93-33.52 23.35-31.85 20.75-28.7L20.75-28.7Q17.05-24.25 15.35-19.53 13.65-14.8 13.65-8.9L13.65-8.9Q13.65-6.7 14.1-4.9 14.55-3.1 15.3-1.75 16.05-0.4 17.07 0.4 18.1 1.2 19.3 1.3L19.3 1.3Q20.9 0.95 22.5-0.33 24.1-1.6 25.43-3.33 26.75-5.05 27.68-7.03 28.6-9 28.8-10.8L28.8-10.8Q27.4-10.5 26.13-10.23 24.85-9.95 23.7-9.95L23.7-9.95Q22.2-9.95 21.08-10.7 19.95-11.45 19.55-12.75L19.55-12.75Q20.45-13.25 22.18-13.8 23.9-14.35 25.85-14.83 27.8-15.3 29.68-15.6 31.55-15.9 32.75-15.9ZM71.55-27.55L71.55-27.55Q71.55-25.15 70.47-23.03 69.4-20.9 67.5-19.23 65.6-17.55 63.05-16.4 60.5-15.25 57.5-14.85L57.5-14.85Q58.25-12.6 59.32-10.23 60.4-7.85 61.65-5.65 62.9-3.45 64.25-1.6 65.6 0.25 66.9 1.45L66.9 1.45Q66.65 1.95 66.17 2.45 65.7 2.95 65.07 3.38 64.45 3.8 63.77 4.08 63.1 4.35 62.5 4.35L62.5 4.35Q61.4 4.35 60.4 3.3 59.4 2.25 58.37-0.03 57.35-2.3 56.22-5.93 55.1-9.55 53.75-14.65L53.75-14.65Q53.2-14.65 52.65-14.65 52.1-14.65 51.8-14.75L51.8-14.75Q51.45-14.95 51.05-15.45L51.05-15.45Q49.7-12.55 48.65-10 47.6-7.45 46.77-5.08 45.95-2.7 45.32-0.48 44.7 1.75 44.25 4.05L44.25 4.05Q42.55 3.65 41.3 2.6 40.05 1.55 38.95-0.35L38.95-0.35Q39.15-0.8 39.37-1.23 39.6-1.65 39.95-2.43 40.3-3.2 40.82-4.4 41.35-5.6 42.22-7.6 43.1-9.6 44.32-12.5 45.55-15.4 47.3-19.55L47.3-19.55Q48.1-21.4 48.67-22.8 49.25-24.2 49.7-25.48 50.15-26.75 50.52-28.03 50.9-29.3 51.3-30.95L51.3-30.95Q49-30.15 47.02-29.18 45.05-28.2 43.75-27.1L43.75-27.1Q43.3-27.4 42.82-28 42.35-28.6 41.95-29.33 41.55-30.05 41.25-30.8 40.95-31.55 40.9-32.15L40.9-32.15Q42.4-33.15 44.57-34 46.75-34.85 49.2-35.48 51.65-36.1 54.2-36.45 56.75-36.8 58.95-36.8L58.95-36.8Q64.95-36.8 68.25-34.33 71.55-31.85 71.55-27.55ZM58.75-32.7L59.35-31.75Q59-31.3 58.25-29.95 57.5-28.6 56.52-26.73 55.55-24.85 54.47-22.65 53.4-20.45 52.4-18.3L52.4-18.3Q56.15-18.3 59.3-19 62.45-19.7 64.75-20.98 67.05-22.25 68.32-23.98 69.6-25.7 69.6-27.8L69.6-27.8Q69.6-30.3 67.8-31.63 66-32.95 62.25-32.95L62.25-32.95Q61.4-32.95 60.55-32.88 59.7-32.8 58.75-32.7L58.75-32.7ZM92.35-21.3L92.35-21.3Q94-21.3 94.92-20.4 95.85-19.5 95.85-17.9L95.85-17.9Q95.85-17.5 95.77-17.07 95.7-16.65 95.6-16.35L95.6-16.35Q94.95-16.45 94.15-16.53 93.35-16.6 92.25-16.6L92.25-16.6Q90.1-16.6 87.9-16.23 85.7-15.85 83.7-15.6L83.7-15.6Q82.55-12.95 81.6-10.48 80.65-8 79.97-5.95 79.3-3.9 78.92-2.4 78.55-0.9 78.5-0.15L78.5-0.15Q82.55-1 86.67-1.6 90.8-2.2 95.35-2.5L95.35-2.5Q95.9-1.65 96.27-0.65 96.65 0.35 96.65 1.5L96.65 1.5Q96.65 1.8 96.65 2.15 96.65 2.5 96.55 2.85L96.55 2.85Q95.15 2.8 93.6 2.78 92.05 2.75 89.55 2.75L89.55 2.75Q87.9 2.75 86.42 2.83 84.95 2.9 83.45 3.05 81.95 3.2 80.27 3.45 78.6 3.7 76.5 4.05L76.5 4.05Q74.2 3.15 72.05-0.35L72.05-0.35Q72.9-2.15 74.42-5.83 75.95-9.5 78.3-15.65L78.3-15.65Q76.05-16.35 75.35-18.15L75.35-18.15Q75.6-18.4 76.8-18.78 78-19.15 79.75-19.55L79.75-19.55Q80.5-21.5 81.02-22.95 81.55-24.4 81.95-25.68 82.35-26.95 82.67-28.18 83-29.4 83.3-30.85L83.3-30.85Q81.55-30.95 80.55-31.83 79.55-32.7 79.55-34.1L79.55-34.1Q79.55-34.5 79.67-35.05 79.8-35.6 79.95-36L79.95-36Q80.95-35.85 81.87-35.8 82.8-35.75 84.3-35.75L84.3-35.75Q87.45-35.75 90.2-35.93 92.95-36.1 95.17-36.3 97.4-36.5 99-36.68 100.6-36.85 101.45-36.85L101.45-36.85Q102.6-36.85 103.5-35.65 104.4-34.45 104.85-32.25L104.85-32.25Q103.3-32.4 102.32-32.45 101.35-32.5 100.6-32.5L100.6-32.5Q97.85-32.5 95.57-32.23 93.3-31.95 91.2-31.65L91.2-31.65Q90.9-31.2 90.52-30.5 90.15-29.8 89.55-28.55 88.95-27.3 88.07-25.4 87.2-23.5 85.95-20.65L85.95-20.65Q87.85-20.95 89.52-21.13 91.2-21.3 92.35-21.3ZM122.79-21.3L122.79-21.3Q124.44-21.3 125.37-20.4 126.29-19.5 126.29-17.9L126.29-17.9Q126.29-17.5 126.22-17.07 126.14-16.65 126.04-16.35L126.04-16.35Q125.39-16.45 124.59-16.53 123.79-16.6 122.69-16.6L122.69-16.6Q120.54-16.6 118.34-16.23 116.14-15.85 114.14-15.6L114.14-15.6Q112.99-12.95 112.04-10.48 111.09-8 110.42-5.95 109.74-3.9 109.37-2.4 108.99-0.9 108.94-0.15L108.94-0.15Q112.99-1 117.12-1.6 121.24-2.2 125.79-2.5L125.79-2.5Q126.34-1.65 126.72-0.65 127.09 0.35 127.09 1.5L127.09 1.5Q127.09 1.8 127.09 2.15 127.09 2.5 126.99 2.85L126.99 2.85Q125.59 2.8 124.04 2.78 122.49 2.75 119.99 2.75L119.99 2.75Q118.34 2.75 116.87 2.83 115.39 2.9 113.89 3.05 112.39 3.2 110.72 3.45 109.04 3.7 106.94 4.05L106.94 4.05Q104.64 3.15 102.49-0.35L102.49-0.35Q103.34-2.15 104.87-5.83 106.39-9.5 108.74-15.65L108.74-15.65Q106.49-16.35 105.79-18.15L105.79-18.15Q106.04-18.4 107.24-18.78 108.44-19.15 110.19-19.55L110.19-19.55Q110.94-21.5 111.47-22.95 111.99-24.4 112.39-25.68 112.79-26.95 113.12-28.18 113.44-29.4 113.74-30.85L113.74-30.85Q111.99-30.95 110.99-31.83 109.99-32.7 109.99-34.1L109.99-34.1Q109.99-34.5 110.12-35.05 110.24-35.6 110.39-36L110.39-36Q111.39-35.85 112.32-35.8 113.24-35.75 114.74-35.75L114.74-35.75Q117.89-35.75 120.64-35.93 123.39-36.1 125.62-36.3 127.84-36.5 129.44-36.68 131.04-36.85 131.89-36.85L131.89-36.85Q133.04-36.85 133.94-35.65 134.84-34.45 135.29-32.25L135.29-32.25Q133.74-32.4 132.77-32.45 131.79-32.5 131.04-32.5L131.04-32.5Q128.29-32.5 126.02-32.23 123.74-31.95 121.64-31.65L121.64-31.65Q121.34-31.2 120.97-30.5 120.59-29.8 119.99-28.55 119.39-27.3 118.52-25.4 117.64-23.5 116.39-20.65L116.39-20.65Q118.29-20.95 119.97-21.13 121.64-21.3 122.79-21.3ZM137.04 3.8L137.04 3.8Q134.19 2.95 133.19 2.18 132.19 1.4 132.19 0.05L132.19 0.05Q132.19-1.45 132.89-4.17 133.59-6.9 134.72-10.25 135.84-13.6 137.29-17.25 138.74-20.9 140.24-24.25 141.74-27.6 143.17-30.38 144.59-33.15 145.69-34.7L145.69-34.7 145.34-36.8Q146.04-36.8 147.29-36.45 148.54-36.1 149.82-35.6 151.09-35.1 152.07-34.58 153.04-34.05 153.14-33.7L153.14-33.7Q152.89-32.5 152.74-30.08 152.59-27.65 152.59-24.9L152.59-24.9Q152.59-19.45 153.02-14.23 153.44-9 154.99-3.6L154.99-3.6Q155.79-7.6 156.72-11.58 157.64-15.55 158.64-19.18 159.64-22.8 160.64-25.9 161.64-29 162.57-31.33 163.49-33.65 164.29-34.98 165.09-36.3 165.74-36.4L165.74-36.4Q166.29-36.3 166.94-35.98 167.59-35.65 168.19-35.2 168.79-34.75 169.29-34.2 169.79-33.65 170.09-33.1L170.09-33.1Q168.49-32.45 166.92-30.05 165.34-27.65 163.92-24.23 162.49-20.8 161.27-16.8 160.04-12.8 159.12-8.93 158.19-5.05 157.67-1.75 157.14 1.55 157.09 3.55L157.09 3.55Q157.09 3.65 157.14 3.7L157.14 3.7Q156.99 3.75 156.82 3.75 156.64 3.75 156.49 3.75L156.49 3.75Q154.19 3.75 152.42 3.18 150.64 2.6 150.09 1.55L150.09 1.55Q149.04-2.65 148.34-6.55 147.64-10.45 147.17-14.35 146.69-18.25 146.42-22.23 146.14-26.2 145.99-30.55L145.99-30.55Q145.04-29.05 143.99-26.63 142.94-24.2 141.94-21.3 140.94-18.4 140.02-15.2 139.09-12 138.39-8.95 137.69-5.9 137.29-3.18 136.89-0.45 136.89 1.55L136.89 1.55Q136.89 2.6 136.92 3.05 136.94 3.5 137.04 3.8ZM199.59-20.85L199.59-20.85Q201.19-20.85 202.11-19.95 203.04-19.05 203.04-17.45L203.04-17.45Q203.04-17.05 202.99-16.63 202.94-16.2 202.79-15.9L202.79-15.9Q202.14-16 201.34-16.07 200.54-16.15 199.44-16.15L199.44-16.15Q197.19-16.15 194.94-15.75 192.69-15.35 190.64-15.1L190.64-15.1Q188.39-9.8 186.94-5.15 185.49-0.5 184.69 4.05L184.69 4.05Q182.99 3.65 181.69 2.6 180.39 1.55 179.24-0.35L179.24-0.35Q179.59-1.15 180.09-2.27 180.59-3.4 181.29-5.13 181.99-6.85 182.96-9.33 183.94-11.8 185.29-15.25L185.29-15.25Q183.19-15.95 182.54-17.7L182.54-17.7Q182.79-17.95 183.94-18.28 185.09-18.6 186.74-19L186.74-19Q187.49-20.95 188.04-22.48 188.59-24 189.04-25.38 189.49-26.75 189.86-28.08 190.24-29.4 190.54-30.9L190.54-30.9 190.29-30.9Q188.39-30.9 187.21-31.8 186.04-32.7 186.04-34.15L186.04-34.15Q186.04-34.55 186.16-35.1 186.29-35.65 186.49-36.05L186.49-36.05Q187.44-35.9 188.36-35.85 189.29-35.8 190.79-35.8L190.79-35.8Q193.94-35.8 196.69-35.98 199.44-36.15 201.66-36.35 203.89-36.55 205.49-36.73 207.09-36.9 207.94-36.9L207.94-36.9Q209.09-36.9 209.99-35.7 210.89-34.5 211.39-32.3L211.39-32.3Q209.79-32.45 208.81-32.5 207.84-32.55 207.09-32.55L207.09-32.55Q204.54-32.55 202.41-32.33 200.29-32.1 198.39-31.8L198.39-31.8Q198.09-31.35 197.71-30.65 197.34-29.95 196.74-28.68 196.14-27.4 195.21-25.35 194.29-23.3 192.89-20.15L192.89-20.15Q194.84-20.45 196.61-20.65 198.39-20.85 199.59-20.85ZM223.18-20.7L223.18-20.7Q222.98-17.6 222.08-15.38 221.18-13.15 219.51-11.48 217.83-9.8 215.43-8.45 213.03-7.1 209.83-5.85L209.83-5.85Q209.83-5.55 209.81-5.23 209.78-4.9 209.78-4.55L209.78-4.55Q209.78-3.9 209.88-3.2 209.98-2.5 210.23-1.9 210.48-1.3 210.93-0.93 211.38-0.55 212.08-0.55L212.08-0.55Q213.43-0.55 214.73-1.15 216.03-1.75 217.21-2.63 218.38-3.5 219.41-4.53 220.43-5.55 221.23-6.4L221.23-6.4Q221.73-5.95 222.08-5.55L222.08-5.55Q219.83-2.55 217.16-0.58 214.48 1.4 212.08 1.95L212.08 1.95Q208.63 1.55 206.71-0.58 204.78-2.7 204.78-5.7L204.78-5.7Q204.78-7.75 205.36-9.88 205.93-12 206.96-13.98 207.98-15.95 209.36-17.7 210.73-19.45 212.31-20.75 213.88-22.05 215.56-22.8 217.23-23.55 218.88-23.55L218.88-23.55Q221.18-23.25 223.18-20.7ZM219.73-19.05L219.73-19.05Q218.38-18.85 216.93-17.95 215.48-17.05 214.21-15.55 212.93-14.05 211.88-12.05 210.83-10.05 210.23-7.75L210.23-7.75Q214.23-9.75 216.88-12.68 219.53-15.6 219.73-19.05ZM236.38-23.35L236.38-23.35Q237.38-23.35 238.68-22.75 239.98-22.15 240.98-21.2L240.98-21.2Q240.73-23.2 240.36-24.98 239.98-26.75 239.26-28.65 238.53-30.55 237.33-32.8 236.13-35.05 234.33-37.95L234.33-37.95Q234.48-38.4 235.01-39 235.53-39.6 236.21-40.13 236.88-40.65 237.61-41.05 238.33-41.45 238.98-41.55L238.98-41.55Q240.38-40 241.63-37.68 242.88-35.35 243.83-32.68 244.78-30 245.31-27.15 245.83-24.3 245.83-21.7L245.83-21.7Q245.83-19.1 245.26-16.35 244.68-13.6 243.66-10.98 242.63-8.35 241.28-6 239.93-3.65 238.36-1.8 236.78 0.05 235.08 1.23 233.38 2.4 231.68 2.7L231.68 2.7Q228.23 2.3 226.41 0.48 224.58-1.35 224.58-4.55L224.58-4.55Q224.58-6.25 225.11-8.25 225.63-10.25 226.51-12.23 227.38-14.2 228.56-16.07 229.73-17.95 231.06-19.45 232.38-20.95 233.73-22 235.08-23.05 236.38-23.35ZM231.28 0.7L231.28 0.7Q233.03 0.1 234.78-1.95 236.53-4 237.93-6.78 239.33-9.55 240.21-12.73 241.08-15.9 241.08-18.85L241.08-18.85Q241.08-19.7 241.08-19.9 241.08-20.1 241.03-20.3L241.03-20.3Q239.83-19.8 238.48-18.6 237.13-17.4 235.78-15.83 234.43-14.25 233.23-12.4 232.03-10.55 231.08-8.7 230.13-6.85 229.58-5.15 229.03-3.45 229.03-2.15L229.03-2.15Q229.03 0.35 231.28 0.7ZM265.03-20.7L265.03-20.7Q264.83-17.6 263.93-15.38 263.03-13.15 261.35-11.48 259.68-9.8 257.28-8.45 254.88-7.1 251.68-5.85L251.68-5.85Q251.68-5.55 251.65-5.23 251.63-4.9 251.63-4.55L251.63-4.55Q251.63-3.9 251.73-3.2 251.83-2.5 252.08-1.9 252.33-1.3 252.78-0.93 253.23-0.55 253.93-0.55L253.93-0.55Q255.28-0.55 256.58-1.15 257.88-1.75 259.05-2.63 260.23-3.5 261.25-4.53 262.28-5.55 263.08-6.4L263.08-6.4Q263.58-5.95 263.93-5.55L263.93-5.55Q261.68-2.55 259-0.58 256.33 1.4 253.93 1.95L253.93 1.95Q250.48 1.55 248.55-0.58 246.63-2.7 246.63-5.7L246.63-5.7Q246.63-7.75 247.2-9.88 247.78-12 248.8-13.98 249.83-15.95 251.2-17.7 252.58-19.45 254.15-20.75 255.73-22.05 257.4-22.8 259.08-23.55 260.73-23.55L260.73-23.55Q263.03-23.25 265.03-20.7ZM261.58-19.05L261.58-19.05Q260.23-18.85 258.78-17.95 257.33-17.05 256.05-15.55 254.78-14.05 253.73-12.05 252.68-10.05 252.08-7.75L252.08-7.75Q256.08-9.75 258.73-12.68 261.38-15.6 261.58-19.05ZM266.13-1L266.13-1Q266.38-2.45 267-4.83 267.63-7.2 268.48-9.88 269.33-12.55 270.28-15.25 271.23-17.95 272.13-20.1L272.13-20.1Q272.78-21.65 273.28-22.53 273.78-23.4 274.38-24L274.38-24Q275.08-23.9 275.83-23.65 276.58-23.4 277.28-23.05 277.98-22.7 278.53-22.33 279.08-21.95 279.38-21.6L279.38-21.6Q278.03-20 277-17.95 275.98-15.9 274.93-12.7L274.93-12.7Q277.63-15.1 279.7-17.3 281.78-19.5 283.58-22.2L283.58-22.2Q283.88-22.45 284.63-22.45L284.63-22.45Q285.33-22.45 285.98-22.23 286.63-22 286.88-21.6L286.88-21.6Q285.98-19.2 285.98-16.85L285.98-16.85Q285.98-14.65 286.63-13.55L286.63-13.55Q286.58-13.25 285.95-12.4 285.33-11.55 284.58-10.8L284.58-10.8Q283.23-11.5 282.18-12.73 281.13-13.95 280.63-15.4L280.63-15.4Q278.28-13.75 276.63-12.18 274.98-10.6 273.8-8.68 272.63-6.75 271.8-4.25 270.98-1.75 270.23 1.7L270.23 1.7Q269.78 1.65 269.15 1.38 268.53 1.1 267.9 0.7 267.28 0.3 266.78-0.15 266.28-0.6 266.13-1ZM304.72-20.2L304.72-20.2Q305.22-20.2 305.9-20.03 306.57-19.85 307.12-19.58 307.67-19.3 308.05-19 308.42-18.7 308.42-18.45L308.42-18.45Q307.42-16.35 306.57-14.23 305.72-12.1 305.12-10.15 304.52-8.2 304.2-6.5 303.87-4.8 303.87-3.55L303.87-3.55Q303.87-2.15 304.17-1.23 304.47-0.3 305.17 0.1L305.17 0.1Q304.57 0.5 303.62 0.75 302.67 1 301.92 1L301.92 1Q299.22 1 299.22-2.7L299.22-2.7Q299.22-5.55 301.12-10.5L301.12-10.5Q300.12-8.2 298.82-6.18 297.52-4.15 296.17-2.6 294.82-1.05 293.45-0.08 292.07 0.9 290.92 1.1L290.92 1.1Q289.07 1 287.92-0.68 286.77-2.35 286.77-4.95L286.77-4.95Q286.77-7.75 287.97-10.85 289.17-13.95 291.05-16.6 292.92-19.25 295.12-21.03 297.32-22.8 299.37-22.9L299.37-22.9Q299.87-22.75 300.5-22.3 301.12-21.85 301.7-21.25 302.27-20.65 302.67-20.03 303.07-19.4 303.12-18.95L303.12-18.95Q301.12-18.65 299-17 296.87-15.35 295.15-13.03 293.42-10.7 292.32-8.05 291.22-5.4 291.22-3.1L291.22-3.1Q291.22-2.15 291.92-1.9L291.92-1.9Q293.37-2.2 295.27-4.38 297.17-6.55 299.87-11.1L299.87-11.1Q300.37-12 301-13.1 301.62-14.2 302.27-15.4 302.92-16.6 303.55-17.82 304.17-19.05 304.72-20.2ZM315.92-19.15L313.07-19.15Q312.82-19.45 312.62-20.43 312.42-21.4 312.42-22.1L312.42-22.1Q313.72-22 314.92-21.93 316.12-21.85 317.12-21.8L317.12-21.8Q317.87-23.3 318.75-24.78 319.62-26.25 320.45-27.48 321.27-28.7 322-29.55 322.72-30.4 323.12-30.65L323.12-30.65Q323.62-30.65 324.4-30.48 325.17-30.3 325.97-30.03 326.77-29.75 327.42-29.45 328.07-29.15 328.32-28.85L328.32-28.85Q326.82-26.95 325.75-25.33 324.67-23.7 323.42-21.6L323.42-21.6Q324.42-21.6 325.45-21.65 326.47-21.7 327.52-21.8L327.52-21.8Q327.77-21.55 327.92-21.18 328.07-20.8 328.07-20.4L328.07-20.4Q325.62-19.5 322.12-19.4L322.12-19.4Q320.87-17 319.9-14.63 318.92-12.25 318.25-10.05 317.57-7.85 317.2-5.9 316.82-3.95 316.82-2.4L316.82-2.4Q316.82-0.2 318.47 0.05L318.47 0.05Q319.97-0.15 321.32-0.7 322.67-1.25 323.72-2.1L323.72-2.1Q324.02-1.65 324.07-1.35L324.07-1.35Q323.77-0.9 323.05-0.3 322.32 0.3 321.47 0.88 320.62 1.45 319.82 1.85 319.02 2.25 318.62 2.3L318.62 2.3Q317.37 2.25 316.12 1.75 314.87 1.25 313.85 0.5 312.82-0.25 312.17-1.18 311.52-2.1 311.52-3L311.52-3Q311.52-4.2 311.85-6.03 312.17-7.85 312.77-10 313.37-12.15 314.17-14.5 314.97-16.85 315.92-19.15L315.92-19.15ZM345.62-20.7L345.62-20.7Q345.42-17.6 344.52-15.38 343.62-13.15 341.94-11.48 340.27-9.8 337.87-8.45 335.47-7.1 332.27-5.85L332.27-5.85Q332.27-5.55 332.24-5.23 332.22-4.9 332.22-4.55L332.22-4.55Q332.22-3.9 332.32-3.2 332.42-2.5 332.67-1.9 332.92-1.3 333.37-0.93 333.82-0.55 334.52-0.55L334.52-0.55Q335.87-0.55 337.17-1.15 338.47-1.75 339.64-2.63 340.82-3.5 341.84-4.53 342.87-5.55 343.67-6.4L343.67-6.4Q344.17-5.95 344.52-5.55L344.52-5.55Q342.27-2.55 339.59-0.58 336.92 1.4 334.52 1.95L334.52 1.95Q331.07 1.55 329.14-0.58 327.22-2.7 327.22-5.7L327.22-5.7Q327.22-7.75 327.79-9.88 328.37-12 329.39-13.98 330.42-15.95 331.79-17.7 333.17-19.45 334.74-20.75 336.32-22.05 337.99-22.8 339.67-23.55 341.32-23.55L341.32-23.55Q343.62-23.25 345.62-20.7ZM342.17-19.05L342.17-19.05Q340.82-18.85 339.37-17.95 337.92-17.05 336.64-15.55 335.37-14.05 334.32-12.05 333.27-10.05 332.67-7.75L332.67-7.75Q336.67-9.75 339.32-12.68 341.97-15.6 342.17-19.05ZM358.82-23.35L358.82-23.35Q359.82-23.35 361.12-22.75 362.42-22.15 363.42-21.2L363.42-21.2Q363.17-23.2 362.79-24.98 362.42-26.75 361.69-28.65 360.97-30.55 359.77-32.8 358.57-35.05 356.77-37.95L356.77-37.95Q356.92-38.4 357.44-39 357.97-39.6 358.64-40.13 359.32-40.65 360.04-41.05 360.77-41.45 361.42-41.55L361.42-41.55Q362.82-40 364.07-37.68 365.32-35.35 366.27-32.68 367.22-30 367.74-27.15 368.27-24.3 368.27-21.7L368.27-21.7Q368.27-19.1 367.69-16.35 367.12-13.6 366.09-10.98 365.07-8.35 363.72-6 362.37-3.65 360.79-1.8 359.22 0.05 357.52 1.23 355.82 2.4 354.12 2.7L354.12 2.7Q350.67 2.3 348.84 0.48 347.02-1.35 347.02-4.55L347.02-4.55Q347.02-6.25 347.54-8.25 348.07-10.25 348.94-12.23 349.82-14.2 350.99-16.07 352.17-17.95 353.49-19.45 354.82-20.95 356.17-22 357.52-23.05 358.82-23.35ZM353.72 0.7L353.72 0.7Q355.47 0.1 357.22-1.95 358.97-4 360.37-6.78 361.77-9.55 362.64-12.73 363.52-15.9 363.52-18.85L363.52-18.85Q363.52-19.7 363.52-19.9 363.52-20.1 363.47-20.3L363.47-20.3Q362.27-19.8 360.92-18.6 359.57-17.4 358.22-15.83 356.87-14.25 355.67-12.4 354.47-10.55 353.52-8.7 352.57-6.85 352.02-5.15 351.47-3.45 351.47-2.15L351.47-2.15Q351.47 0.35 353.72 0.7ZM400.26-2.85L400.26-2.85Q401.51-0.7 401.51 1.3L401.51 1.3Q401.51 1.75 401.44 2.13 401.36 2.5 401.26 2.9L401.26 2.9Q400.41 2.8 399.49 2.75 398.56 2.7 397.56 2.7L397.56 2.7Q396.36 2.7 395.13 2.78 393.91 2.85 392.41 3 390.91 3.15 389.06 3.4 387.21 3.65 384.76 4.05L384.76 4.05Q383.61 3.65 382.46 2.48 381.31 1.3 380.31-0.35L380.31-0.35Q380.81-1.45 381.56-3.08 382.31-4.7 383.31-7.03 384.31-9.35 385.54-12.48 386.76-15.6 388.16-19.7L388.16-19.7Q389.06-22.4 389.71-24.45 390.36-26.5 390.88-28.43 391.41-30.35 391.91-32.45 392.41-34.55 393.01-37.3L393.01-37.3Q395.01-36.9 396.49-35.83 397.96-34.75 399.31-32.75L399.31-32.75Q398.91-32.1 398.26-30.65 397.61-29.2 396.74-27.13 395.86-25.05 394.81-22.43 393.76-19.8 392.61-16.8L392.61-16.8Q391.51-13.85 390.46-11.25 389.41-8.65 388.59-6.55 387.76-4.45 387.26-2.95 386.76-1.45 386.76-0.7L386.76-0.7Q387.56-0.75 388.21-0.8 388.86-0.85 389.56-0.98 390.26-1.1 391.09-1.28 391.91-1.45 393.06-1.75L393.06-1.75Q394.06-2 394.91-2.18 395.76-2.35 396.59-2.48 397.41-2.6 398.29-2.68 399.16-2.75 400.26-2.85ZM422.11-20.7L422.11-20.7Q421.91-17.6 421.01-15.38 420.11-13.15 418.43-11.48 416.76-9.8 414.36-8.45 411.96-7.1 408.76-5.85L408.76-5.85Q408.76-5.55 408.73-5.23 408.71-4.9 408.71-4.55L408.71-4.55Q408.71-3.9 408.81-3.2 408.91-2.5 409.16-1.9 409.41-1.3 409.86-0.93 410.31-0.55 411.01-0.55L411.01-0.55Q412.36-0.55 413.66-1.15 414.96-1.75 416.13-2.63 417.31-3.5 418.33-4.53 419.36-5.55 420.16-6.4L420.16-6.4Q420.66-5.95 421.01-5.55L421.01-5.55Q418.76-2.55 416.08-0.58 413.41 1.4 411.01 1.95L411.01 1.95Q407.56 1.55 405.63-0.58 403.71-2.7 403.71-5.7L403.71-5.7Q403.71-7.75 404.28-9.88 404.86-12 405.88-13.98 406.91-15.95 408.28-17.7 409.66-19.45 411.23-20.75 412.81-22.05 414.48-22.8 416.16-23.55 417.81-23.55L417.81-23.55Q420.11-23.25 422.11-20.7ZM418.66-19.05L418.66-19.05Q417.31-18.85 415.86-17.95 414.41-17.05 413.13-15.55 411.86-14.05 410.81-12.05 409.76-10.05 409.16-7.75L409.16-7.75Q413.16-9.75 415.81-12.68 418.46-15.6 418.66-19.05ZM441.66-20.2L441.66-20.2Q442.16-20.2 442.83-20.03 443.5-19.85 444.06-19.58 444.61-19.3 444.98-19 445.36-18.7 445.36-18.45L445.36-18.45Q444.36-16.35 443.5-14.23 442.66-12.1 442.06-10.15 441.45-8.2 441.13-6.5 440.81-4.8 440.81-3.55L440.81-3.55Q440.81-2.15 441.11-1.23 441.41-0.3 442.11 0.1L442.11 0.1Q441.5 0.5 440.56 0.75 439.61 1 438.86 1L438.86 1Q436.16 1 436.16-2.7L436.16-2.7Q436.16-5.55 438.06-10.5L438.06-10.5Q437.06-8.2 435.75-6.18 434.45-4.15 433.11-2.6 431.75-1.05 430.38-0.08 429 0.9 427.86 1.1L427.86 1.1Q426 1 424.86-0.68 423.7-2.35 423.7-4.95L423.7-4.95Q423.7-7.75 424.91-10.85 426.11-13.95 427.98-16.6 429.86-19.25 432.06-21.03 434.25-22.8 436.31-22.9L436.31-22.9Q436.81-22.75 437.43-22.3 438.06-21.85 438.63-21.25 439.2-20.65 439.61-20.03 440-19.4 440.06-18.95L440.06-18.95Q438.06-18.65 435.93-17 433.81-15.35 432.08-13.03 430.36-10.7 429.25-8.05 428.16-5.4 428.16-3.1L428.16-3.1Q428.16-2.15 428.86-1.9L428.86-1.9Q430.31-2.2 432.2-4.38 434.11-6.55 436.81-11.1L436.81-11.1Q437.31-12 437.93-13.1 438.56-14.2 439.2-15.4 439.86-16.6 440.48-17.82 441.11-19.05 441.66-20.2ZM446.7-1L446.7-1Q446.95-2.45 447.58-4.83 448.2-7.2 449.05-9.88 449.9-12.55 450.85-15.25 451.8-17.95 452.7-20.1L452.7-20.1Q453.35-21.65 453.85-22.53 454.35-23.4 454.95-24L454.95-24Q455.65-23.9 456.4-23.65 457.15-23.4 457.85-23.05 458.55-22.7 459.1-22.33 459.65-21.95 459.95-21.6L459.95-21.6Q458.6-20 457.58-17.95 456.55-15.9 455.5-12.7L455.5-12.7Q458.2-15.1 460.28-17.3 462.35-19.5 464.15-22.2L464.15-22.2Q464.45-22.45 465.2-22.45L465.2-22.45Q465.9-22.45 466.55-22.23 467.2-22 467.45-21.6L467.45-21.6Q466.55-19.2 466.55-16.85L466.55-16.85Q466.55-14.65 467.2-13.55L467.2-13.55Q467.15-13.25 466.53-12.4 465.9-11.55 465.15-10.8L465.15-10.8Q463.8-11.5 462.75-12.73 461.7-13.95 461.2-15.4L461.2-15.4Q458.85-13.75 457.2-12.18 455.55-10.6 454.38-8.68 453.2-6.75 452.38-4.25 451.55-1.75 450.8 1.7L450.8 1.7Q450.35 1.65 449.73 1.38 449.1 1.1 448.48 0.7 447.85 0.3 447.35-0.15 446.85-0.6 446.7-1ZM476.15-24.25L476.15-24.25Q477.45-23.85 478.6-22.48 479.75-21.1 480.3-19.45L480.3-19.45Q479.75-18.1 478.6-16.2 477.45-14.3 476.3-12.33 475.15-10.35 474.22-8.58 473.3-6.8 473.15-5.65L473.15-5.65Q473.95-6.5 474.93-7.63 475.9-8.75 476.82-9.88 477.75-11 478.55-11.93 479.35-12.85 479.8-13.3L479.8-13.3Q480.75-14.3 482.05-15.63 483.35-16.95 484.77-18.13 486.2-19.3 487.65-20.13 489.1-20.95 490.3-20.95L490.3-20.95Q491.6-20.95 492.47-20.08 493.35-19.2 493.85-18.25L493.85-18.25Q493.85-18.15 493.47-17.98 493.1-17.8 492.4-17L492.4-17Q491.7-16.1 490.82-14.53 489.95-12.95 489.13-11.13 488.3-9.3 487.75-7.4 487.2-5.5 487.2-3.95L487.2-3.95Q487.2-2.7 487.52-2.35 487.85-2 488.45-2L488.45-2Q489-2 489.6-2.25 490.2-2.5 490.55-2.5L490.55-2.5Q490.75-2.4 490.88-2.08 491-1.75 491-1.5L491-1.5Q490.6-1.15 490.05-0.8 489.5-0.45 488.9-0.15 488.3 0.15 487.72 0.35 487.15 0.55 486.7 0.55L486.7 0.55Q485.25 0.55 484.32 0.13 483.4-0.3 482.88-1 482.35-1.7 482.15-2.68 481.95-3.65 481.95-4.75L481.95-4.75Q481.95-5.35 482.05-6.1 482.15-6.85 482.45-7.88 482.75-8.9 483.3-10.33 483.85-11.75 484.7-13.75L484.7-13.75Q484.6-13.75 483.35-13.05 482.1-12.35 480.65-10.9L480.65-10.9Q478.3-8.65 476.43-6.45 474.55-4.25 472.6-1.55L472.6-1.55Q471.5 0 470.68 1.07 469.85 2.15 469.25 2.5L469.25 2.5Q468.2 1.9 467.7 0.83 467.2-0.25 466.95-1.4L466.95-1.4Q466.95-2.35 467.22-3.8 467.5-5.25 467.97-7.03 468.45-8.8 469.15-10.75 469.85-12.7 470.7-14.65L470.7-14.65Q472.6-19.05 474.18-21.55 475.75-24.05 476.15-24.25ZM495.1-3.35L495.1-3.35Q495.1-3.8 495.17-4.48 495.25-5.15 495.45-6.28 495.65-7.4 495.97-9 496.3-10.6 496.8-12.85L496.8-12.85Q496.9-13.35 497.25-14.45 497.6-15.55 498.17-16.78 498.75-18 499.57-19.15 500.4-20.3 501.55-20.85L501.55-20.85Q502.4-20.65 503.8-19.83 505.2-19 506.2-17.55L506.2-17.55Q505.05-16.25 504.27-14.95 503.5-13.65 502.87-12.25 502.25-10.85 501.72-9.35 501.2-7.85 500.55-6.2L500.55-6.2Q500-4.8 499.55-3.33 499.1-1.85 499.05-0.75L499.05-0.75Q499.05 0.15 499.02 0.53 499 0.9 498.75 0.9L498.75 0.9Q498.55 0.9 497.95 0.65 497.35 0.4 496.72-0.13 496.1-0.65 495.6-1.45 495.1-2.25 495.1-3.35ZM504.65-25.05L504.65-25.05Q504.65-25.35 504.8-25.95L504.8-25.95Q504.55-26.2 504.37-26.7 504.2-27.2 504.2-27.6L504.2-27.6Q504.2-28.05 504.32-28.83 504.45-29.6 504.65-30.5 504.85-31.4 505.15-32.38 505.45-33.35 505.75-34.15L505.75-34.15Q506.35-34.15 507.22-33.83 508.1-33.5 509-32.98 509.9-32.45 510.65-31.83 511.4-31.2 511.8-30.65L511.8-30.65Q511.25-30.1 510.35-29.13 509.45-28.15 508.6-27.08 507.75-26 507.05-25.05 506.35-24.1 506.15-23.7L506.15-23.7Q505.55-23.8 505.1-24.23 504.65-24.65 504.65-25.05ZM514.95-24.25L514.95-24.25Q516.25-23.85 517.39-22.48 518.54-21.1 519.1-19.45L519.1-19.45Q518.54-18.1 517.39-16.2 516.25-14.3 515.1-12.33 513.95-10.35 513.02-8.58 512.1-6.8 511.94-5.65L511.94-5.65Q512.75-6.5 513.72-7.63 514.7-8.75 515.62-9.88 516.54-11 517.35-11.93 518.14-12.85 518.6-13.3L518.6-13.3Q519.54-14.3 520.85-15.63 522.14-16.95 523.57-18.13 525-19.3 526.45-20.13 527.89-20.95 529.1-20.95L529.1-20.95Q530.39-20.95 531.27-20.08 532.14-19.2 532.64-18.25L532.64-18.25Q532.64-18.15 532.27-17.98 531.89-17.8 531.2-17L531.2-17Q530.5-16.1 529.62-14.53 528.75-12.95 527.92-11.13 527.1-9.3 526.54-7.4 526-5.5 526-3.95L526-3.95Q526-2.7 526.32-2.35 526.64-2 527.25-2L527.25-2Q527.79-2 528.39-2.25 529-2.5 529.35-2.5L529.35-2.5Q529.54-2.4 529.67-2.08 529.79-1.75 529.79-1.5L529.79-1.5Q529.39-1.15 528.85-0.8 528.29-0.45 527.7-0.15 527.1 0.15 526.52 0.35 525.95 0.55 525.5 0.55L525.5 0.55Q524.04 0.55 523.12 0.13 522.2-0.3 521.67-1 521.14-1.7 520.95-2.68 520.75-3.65 520.75-4.75L520.75-4.75Q520.75-5.35 520.85-6.1 520.95-6.85 521.25-7.88 521.54-8.9 522.1-10.33 522.64-11.75 523.5-13.75L523.5-13.75Q523.39-13.75 522.14-13.05 520.89-12.35 519.45-10.9L519.45-10.9Q517.1-8.65 515.22-6.45 513.35-4.25 511.39-1.55L511.39-1.55Q510.3 0 509.47 1.07 508.64 2.15 508.05 2.5L508.05 2.5Q507 1.9 506.5 0.83 506-0.25 505.75-1.4L505.75-1.4Q505.75-2.35 506.02-3.8 506.3-5.25 506.77-7.03 507.25-8.8 507.94-10.75 508.64-12.7 509.5-14.65L509.5-14.65Q511.39-19.05 512.97-21.55 514.54-24.05 514.95-24.25ZM523.74 14.9L523.74 14.9Q523.74 14.6 523.94 14.35 524.14 14.1 524.39 13.85L524.39 13.85Q524.99 14.4 525.42 14.7 525.84 15 526.22 15.2 526.59 15.4 526.99 15.45 527.39 15.5 527.94 15.5L527.94 15.5Q530.54 15.5 532.89 14.13 535.24 12.75 537.32 10.15 539.39 7.55 541.09 3.8 542.79 0.05 544.09-4.7L544.09-4.7Q543.49-4.1 542.62-3.38 541.74-2.65 540.79-2 539.84-1.35 538.92-0.8 537.99-0.25 537.34 0L537.34 0Q536.49-0.15 535.77-0.73 535.04-1.3 534.49-2.15 533.94-3 533.64-4.08 533.34-5.15 533.34-6.35L533.34-6.35Q533.34-8.3 534.07-10.35 534.79-12.4 535.99-14.38 537.19-16.35 538.82-18.1 540.44-19.85 542.27-21.15 544.09-22.45 545.97-23.23 547.84-24 549.64-24L549.64-24Q551.39-24 552.27-23.28 553.14-22.55 553.54-20.8L553.54-20.8Q552.99-21.1 552.14-21.1L552.14-21.1Q550.94-21.1 549.37-20.15 547.79-19.2 546.17-17.68 544.54-16.15 542.94-14.18 541.34-12.2 540.12-10.15 538.89-8.1 538.12-6.15 537.34-4.2 537.34-2.65L537.34-2.65Q537.34-2.3 537.39-2.23 537.44-2.15 537.54-2.15L537.54-2.15Q537.99-2.15 538.77-2.65 539.54-3.15 540.52-3.93 541.49-4.7 542.54-5.73 543.59-6.75 544.54-7.8L544.54-7.8Q546.69-10.2 548.47-13.18 550.24-16.15 551.29-18.95L551.29-18.95Q552.64-18.85 553.69-18.5 554.74-18.15 555.14-17.75L555.14-17.75Q553.44-13.85 552.42-11.2 551.39-8.55 550.64-6.5L550.64-6.5Q549.29-2.9 548.12 0.08 546.94 3.05 545.72 5.58 544.49 8.1 543.07 10.28 541.64 12.45 539.84 14.45L539.84 14.45Q538.99 15.4 537.92 16.13 536.84 16.85 535.72 17.35 534.59 17.85 533.52 18.1 532.44 18.35 531.54 18.35L531.54 18.35Q530.34 18.35 529.09 18.07 527.84 17.8 526.77 17.32 525.69 16.85 524.89 16.23 524.09 15.6 523.74 14.9Z" opacity="1" transform="matrix(1,0,0,1,0,0)" fill="#000000" class="slogan-text-1" data-fill-palette-color="secondary" id="text-1"></path></svg></g></svg></g></svg></g></svg></g><g><svg viewBox="0 0 167.0615629172813 310.98778051386154" height="310.98778051386154" width="167.0615629172813"><g><svg xmlns="http://www.w3.org/2000/svg" data-name="Layer 1" viewBox="24.299456899160973 2.3 51.30227056586628 95.5" x="0" y="0" height="310.98778051386154" width="167.0615629172813" class="icon-icon-0" data-fill-palette-color="accent" id="icon-0"><g data-name="Group" fill="#44eb87" data-fill-palette-color="accent"><path data-name="Compound Path" d="M72.6 58.8H69.7a23.1 23.1 0 0 0-16.5 7.8V47.3A16 16 0 0 0 67.7 31.4v-10a5 5 0 0 0-5-5H61.2V5.3a3 3 0 0 0-6 0V16.4h-10V5.3a3 3 0 0 0-6 0V16.4H37.8a5 5 0 0 0-5 5v10A16 16 0 0 0 47.2 47.3v5.1a23.2 23.2 0 0 0-16.9-8.3H27.4a3 3 0 0 0-2.2 0.9 3 3 0 0 0-0.9 2.2V50A23.4 23.4 0 0 0 46.9 72.4h0.4V94.8a3 3 0 0 0 6 0V87.1A23.4 23.4 0 0 0 75.6 64.7V61.9a3 3 0 0 0-3.1-3.1ZM30.5 50.2A17.4 17.4 0 0 1 46.7 66.4 17.4 17.4 0 0 1 30.5 50.2Zm8.3-18.8v-9h23v9a10 10 0 0 1-10 10h-3A10 10 0 0 1 38.8 31.4ZM53.3 81.1A17.3 17.3 0 0 1 69.5 64.9 17.3 17.3 0 0 1 53.3 81.1Z" fill="#000000" data-fill-palette-color="accent"></path></g></svg></g></svg></g></svg></g><defs></defs></svg><rect width="395.52" height="211.52945990208218" fill="none" stroke="none" visibility="hidden"></rect></g></svg></g></svg>